<svg
  xmlns="http://www.w3.org/2000/svg"
  width="512px"
  height="512px"
  fill="#ffc391"
  viewBox="0 0 512 512"
  enable-background="new 0 0 512 512"
>
  <path d="M394.995,222.667c-0.965-76.629-64.043-138.154-140.723-137.222c-74.719,0.94-135.097,60.986-137.167,135.02  c-0.077,0.397-0.116,0.808-0.111,1.229c0.003,0.253,0.027,0.5,0.061,0.745c-0.017,1.239-0.02,2.481-0.004,3.729  c0.689,54.774,33.137,101.841,79.574,123.884l-27.951,68.157c-0.007,0.017-0.014,0.034-0.021,0.051l-0.011,0.027  c-0.006,0.016-0.01,0.031-0.016,0.046c-0.077,0.192-0.144,0.39-0.201,0.592c-0.017,0.059-0.031,0.117-0.046,0.177  c-0.04,0.161-0.074,0.323-0.101,0.489c-0.012,0.071-0.023,0.143-0.033,0.214c-0.02,0.157-0.031,0.317-0.039,0.478  c-0.003,0.071-0.01,0.142-0.011,0.213c0,0.022-0.003,0.045-0.003,0.068c0,0.203,0.01,0.404,0.03,0.604v0.001  c0.023,0.231,0.063,0.458,0.111,0.681c0.011,0.048,0.025,0.095,0.037,0.142c0.043,0.176,0.092,0.349,0.15,0.518  c0.02,0.059,0.042,0.116,0.064,0.175c0.062,0.162,0.13,0.321,0.205,0.477c0.025,0.053,0.049,0.105,0.076,0.158  c0.103,0.199,0.214,0.393,0.338,0.578c0.002,0.004,0.004,0.008,0.006,0.011c0,0,0,0.001,0.001,0.001  c0.126,0.188,0.265,0.367,0.412,0.539c0.045,0.053,0.092,0.102,0.139,0.152c0.106,0.116,0.215,0.229,0.33,0.336  c0.056,0.053,0.111,0.104,0.169,0.153c0.125,0.108,0.254,0.211,0.388,0.309c0.046,0.034,0.09,0.07,0.137,0.103  c0.186,0.129,0.377,0.248,0.578,0.355c0.014,0.007,0.028,0.012,0.042,0.02c0.185,0.098,0.376,0.184,0.572,0.262  c0.053,0.021,0.106,0.039,0.16,0.059c0.16,0.059,0.323,0.11,0.49,0.155c0.063,0.018,0.126,0.034,0.19,0.05  c0.165,0.038,0.333,0.068,0.502,0.094c0.062,0.009,0.122,0.021,0.184,0.027c0.227,0.026,0.457,0.043,0.691,0.043h163.659  c0.234,0,0.464-0.017,0.691-0.043c0.062-0.007,0.122-0.019,0.184-0.027c0.17-0.025,0.338-0.056,0.502-0.094  c0.064-0.016,0.127-0.032,0.189-0.05c0.167-0.045,0.33-0.097,0.49-0.155c0.054-0.02,0.107-0.037,0.16-0.059  c0.195-0.078,0.387-0.164,0.571-0.262c0.014-0.008,0.028-0.013,0.042-0.02c0.199-0.107,0.392-0.227,0.578-0.355  c0.047-0.032,0.09-0.068,0.137-0.103c0.133-0.098,0.263-0.2,0.387-0.309c0.059-0.05,0.113-0.101,0.17-0.153  c0.114-0.107,0.224-0.22,0.33-0.336c0.046-0.051,0.094-0.1,0.139-0.152c0.146-0.172,0.285-0.351,0.411-0.539  c0.001,0,0.001-0.001,0.001-0.001c0.002-0.003,0.004-0.007,0.006-0.011c0.125-0.186,0.235-0.379,0.338-0.578  c0.027-0.053,0.052-0.105,0.077-0.159c0.075-0.155,0.144-0.313,0.204-0.476c0.021-0.059,0.044-0.116,0.064-0.175  c0.058-0.169,0.107-0.342,0.15-0.518c0.012-0.047,0.025-0.094,0.036-0.142c0.049-0.223,0.088-0.449,0.11-0.681v-0.001  c0.021-0.199,0.031-0.4,0.031-0.604c0-0.023-0.004-0.045-0.004-0.068c0-0.071-0.008-0.143-0.011-0.214  c-0.007-0.16-0.019-0.319-0.038-0.476c-0.01-0.072-0.021-0.144-0.033-0.215c-0.027-0.166-0.061-0.328-0.102-0.489  c-0.015-0.06-0.028-0.118-0.045-0.177c-0.058-0.202-0.124-0.399-0.201-0.592c-0.006-0.015-0.01-0.03-0.016-0.046l-0.012-0.027  c-0.006-0.017-0.014-0.034-0.02-0.051l-27.951-68.155C362.996,327.474,395.7,278.681,394.995,222.667z M382.429,212.352  l-19.576,0.247c-2.557-23.268-12.555-44.289-27.531-60.664l13.623-13.969C367.474,157.863,379.716,183.713,382.429,212.352z   M219.64,325.558c9.987,3.604,20.651,5.763,31.735,6.235l0.246,19.529c-13.788-0.469-27.031-3.152-39.387-7.705L219.64,325.558z   M160.587,227.146l86.89-1.094l-34.312,83.667C182.802,294.393,161.614,263.304,160.587,227.146z M224.198,314.442l31.825-77.603  l31.826,77.606c-9.594,3.4-19.894,5.311-30.623,5.446C245.651,320.041,234.524,318.107,224.198,314.442z M292.405,325.556  l7.404,18.056c-11.385,4.194-23.535,6.807-36.189,7.558l-0.246-19.524C273.503,330.956,283.243,328.86,292.405,325.556z   M298.882,309.725l-34.401-83.887l87.017-1.096C351.379,261.771,330.022,294.018,298.882,309.725z M340.364,129.575l-13.617,13.964  c-17.847-15.629-40.873-25.444-66.076-26.504l-0.246-19.518C290.998,98.563,318.917,110.487,340.364,129.575z M254.821,128.944  c0.408-0.006,0.813-0.008,1.22-0.008c48.562,0,88.961,36.542,94.747,83.814l-189.794,2.39  C165.625,167.339,205.715,129.562,254.821,128.944z M248.426,97.666l0.246,19.525c-25.165,1.709-47.933,12.1-65.379,28.164  l-13.975-13.627C190.277,112.105,217.889,99.479,248.426,97.666z M160.95,140.329l13.98,13.632  c-14.563,16.743-24.03,38.005-26,61.33l-19.577,0.247C131.344,186.84,142.927,160.688,160.95,140.329z M129.088,227.542l19.5-0.245  c0.717,26.936,11.357,51.381,28.367,69.854l-13.63,13.978C142.751,289.15,129.878,259.854,129.088,227.542z M171.926,319.498  l13.639-13.986c6.957,6.051,14.694,11.221,23.036,15.34l-7.417,18.086C190.53,333.816,180.689,327.257,171.926,319.498z   M328.907,414.564H183.139l24.542-59.845c15.067,5.608,31.347,8.681,48.316,8.681c0.587,0,1.188-0.004,1.777-0.011  c16.374-0.206,32.058-3.26,46.593-8.668L328.907,414.564z M310.86,338.932l-7.412-18.074c9.166-4.525,17.59-10.32,25.051-17.147  l13.98,13.632C333.143,326.037,322.491,333.34,310.86,338.932z M336.892,295.133c16.541-18.896,26.566-43.598,26.604-70.542  l19.5-0.246c0.024,32.319-12.112,61.927-32.128,84.415L336.892,295.133z"/>
</svg>